# xmcd
# Track frame offsets:
# 150
# 11965
# 22918
# 30383
# 43248
# 56376
# 74265
# 89944
# 103260
# 115864
# 126594
# 138898
# 152252
# 162344
# 178098
# 189390
#
# Disc length: 2713 seconds
# Revision: 0
# Processed by: cddbd v1.5.2PL0 Copyright (c) Steve Scherf et al.
# Submitted via: VisiTrax 2.10.3.257 - For more info visit www.synapsa.com
#
DISCID=db0a9710
DTITLE=McDowell, Ronnie - At Church Street Station
DYEAR=1986
DGENRE=Country
TTITLE0=In A New York Minute
TTITLE1=Watchin' Girls Go By
TTITLE2=I Dream of Women Like You
TTITLE3=Wandering Eyes
TTITLE4=Older Women Make Good Lovers
TTITLE5=The King is Gone
TTITLE6=Unchained Melody
TTITLE7=Paralyzed
TTITLE8=Blue Velvet w/ Bobby Vinton
TTITLE9=It's Only Make Believe w/ Conway Twitty
TTITLE10=Burning Bridges w/ Jack Scott
TTITLE11=Cry to Me
TTITLE12=Never Too Old To Rock and Roll w/ Jerry Lee Lewis
TTITLE13=Since I Don't Have You
TTITLE14=She's My Saturday Night Special w/ Wayne Newton
TTITLE15=Smokey Places
EXTD=
EXTT0=
EXTT1=
EXTT2=
EXTT3=
EXTT4=
EXTT5=
EXTT6=
EXTT7=
EXTT8=
EXTT9=
EXTT10=
EXTT11=
EXTT12=
EXTT13=
EXTT14=
EXTT15=
PLAYORDER=
